<svg id="visual" viewBox="0 0 900 600" width="900" height="600" xmlns="http://www.w3.org/2000/svg" xmlns:xlink="http://www.w3.org/1999/xlink" version="1.1"><path d="M719 600L683 545L692 491L737 436L701 382L638 327L818 273L755 218L737 164L782 109L683 55L773 0L900 0L900 55L900 109L900 164L900 218L900 273L900 327L900 382L900 436L900 491L900 545L900 600Z" fill="#cccccc"></path><path d="M530 600L467 545L431 491L476 436L386 382L494 327L593 273L602 218L431 164L557 109L476 55L422 0L774 0L684 55L783 109L738 164L756 218L819 273L639 327L702 382L738 436L693 491L684 545L720 600Z" fill="#bbb0d6"></path><path d="M404 600L377 545L350 491L359 436L197 382L404 327L431 273L494 218L269 164L431 109L368 55L332 0L423 0L477 55L558 109L432 164L603 218L594 273L495 327L387 382L477 436L432 491L468 545L531 600Z" fill="#a894e0"></path><path d="M62 600L89 545L71 491L152 436L80 382L53 327L143 273L98 218L116 164L116 109L116 55L71 0L333 0L369 55L432 109L270 164L495 218L432 273L405 327L198 382L360 436L351 491L378 545L405 600Z" fill="#9078e9"></path><path d="M0 600L0 545L0 491L0 436L0 382L0 327L0 273L0 218L0 164L0 109L0 55L0 0L72 0L117 55L117 109L117 164L99 218L144 273L54 327L81 382L153 436L72 491L90 545L63 600Z" fill="#715df2"></path></svg>